<svg width="140" height="44" viewBox="0 0 140 44" fill="none" xmlns="http://www.w3.org/2000/svg">
<path fill-rule="evenodd" clip-rule="evenodd" d="M85.5269 6.84188H80.6257C80.7024 6.27903 80.7719 5.73628 80.8468 5.19719C80.8962 4.85363 80.7335 4.69099 80.3991 4.69099C79.5493 4.69099 78.6977 4.69099 77.8407 4.67819C77.5647 4.67819 77.5629 4.88835 77.53 5.0583C77.4204 5.65953 77.3272 6.2571 77.2303 6.85284C77.1188 7.5491 77.0128 8.23987 76.9087 8.93247C76.9079 9.01531 76.9159 9.098 76.9324 9.17917H82.327C82.1644 10.261 82.0072 11.2807 81.8501 12.3059C81.809 12.5 81.7809 12.6966 81.766 12.8944C81.766 13.2598 81.5997 13.3421 81.2635 13.3366C79.7412 13.322 78.2244 13.3366 76.704 13.322C76.355 13.322 76.1996 13.4115 76.1558 13.7569C76.0004 14.9027 75.8232 16.0412 75.6514 17.1815C75.4906 18.2615 75.3334 19.3324 75.1562 20.4088C75.1359 20.4663 75.1015 20.5179 75.0562 20.5587C75.0109 20.5996 74.956 20.6285 74.8967 20.6427C73.0692 20.6537 71.2418 20.6427 69.4144 20.6427C69.3601 20.6324 69.3068 20.6171 69.2554 20.597C70.1051 15.2974 70.9476 9.99786 71.7955 4.67089H69.9407C69.5478 4.67089 69.5258 4.6252 69.5916 4.2524C69.7872 3.11756 69.9809 1.97724 70.1399 0.833267C70.1801 0.570116 70.2623 0.476917 70.5309 0.480572C75.0758 0.480572 79.6224 0.480572 84.1709 0.497019C85.6146 0.497019 86.0842 1.29561 86.0788 1.7415C86.0821 2.40612 86.0498 3.07043 85.9819 3.73158C85.8704 4.71657 85.7023 5.69425 85.5616 6.67741C85.5511 6.7323 85.5377 6.78659 85.5214 6.84005" fill="#101010"/>
<path fill-rule="evenodd" clip-rule="evenodd" d="M49.356 13.6075C49.4003 11.5962 49.6819 9.59718 50.1948 7.65189C50.5438 6.26121 51.0007 4.89428 51.8395 3.70462C52.8829 2.22074 54.2352 1.14621 55.9987 0.61808C58.3928 -0.103739 60.9327 -0.195012 63.3724 0.353102C65.3095 0.784377 66.8446 1.82602 67.6578 3.7101C68.1998 5.02076 68.4065 6.44592 68.259 7.85656C68.1603 9.0444 68.0653 10.2322 67.8679 11.4054C67.5189 13.4613 67.0511 15.4861 65.8998 17.2532C64.9193 18.8221 63.4012 19.9803 61.6291 20.5116C59.3941 21.2005 57.1189 21.2645 54.8346 20.899C53.0072 20.6066 51.4338 19.8226 50.4013 18.2053C49.5643 16.8859 49.3377 15.4094 49.356 13.878V13.6075ZM61.9068 7.52397C61.9294 7.05816 61.9263 6.59145 61.8977 6.12598C61.8707 5.60684 61.645 5.11801 61.2672 4.76088C60.2621 3.88006 58.2629 4.19986 57.4735 5.3548C56.8942 6.20273 56.6383 7.17127 56.4373 8.15261C56.2125 9.24907 56.0005 10.3327 55.8763 11.4292C55.754 12.531 55.6991 13.6393 55.7118 14.7478C55.7118 15.3856 55.8946 16.027 56.4556 16.4601C56.9746 16.8658 57.5831 16.8494 58.1971 16.8439C58.5717 16.8449 58.9409 16.7545 59.2727 16.5807C59.6045 16.4068 59.8889 16.1547 60.1013 15.8461C60.6733 15.095 60.92 14.2014 61.1265 13.3078C61.5907 11.4129 61.8522 9.4741 61.9068 7.52397Z" fill="#101010"/>
<path fill-rule="evenodd" clip-rule="evenodd" d="M75.62 23.0064C75.4592 23.9914 75.3002 24.9709 75.1357 25.9431C75.0772 26.3086 74.9914 26.6741 74.953 27.0396C74.9219 27.29 74.8013 27.3484 74.5783 27.3302C74.4151 27.321 74.2513 27.3246 74.0886 27.3411C73.5714 27.3795 73.3832 27.5732 73.2096 28.0831C72.8697 29.0699 72.5481 30.0695 72.1387 31.0289C71.9537 31.4987 71.6713 31.9241 71.31 32.2769C70.9487 32.6296 70.5168 32.9019 70.0426 33.0756C70.0843 33.1526 70.1373 33.2228 70.1998 33.2839C71.0441 33.8925 71.3109 34.8062 71.5247 35.751C71.7074 36.5532 71.903 37.361 72.104 38.1614C72.2739 38.8412 72.6212 38.8924 73.1877 38.9198C73.5349 38.9435 73.8876 38.9326 74.2403 38.9344C74.2705 38.9416 74.2991 38.9547 74.3243 38.9728C74.3379 39.0215 74.3441 39.072 74.3426 39.1226C74.1599 40.3086 73.9607 41.4983 73.7816 42.6879C73.7359 42.9895 73.6244 43.1137 73.29 43.1028C71.9797 43.0882 70.6713 43.132 69.361 43.0772C68.7566 43.0512 68.1598 42.9316 67.5921 42.7227C66.6235 42.3572 66.2123 41.4965 66.0442 40.548C65.7975 39.172 65.6166 37.7776 65.4192 36.3924C65.3994 36.1038 65.274 35.8326 65.0671 35.6304C64.8602 35.4282 64.5862 35.3092 64.2972 35.296C64.0176 35.2685 63.7362 35.2722 63.4547 35.2539C63.2446 35.2393 63.1496 35.3088 63.1167 35.5354C62.8115 37.5455 62.4898 39.5557 62.1737 41.5513C62.1024 41.9935 62.0312 42.4321 61.938 42.8616C61.9198 42.915 61.8886 42.9631 61.8471 43.0014C61.8056 43.0397 61.7552 43.067 61.7004 43.0808C59.8894 43.0955 58.0784 43.0808 56.2656 43.0808C56.2185 43.0714 56.173 43.0554 56.1304 43.0333C56.1779 42.719 56.2217 42.4029 56.2729 42.0831C56.5068 40.6083 56.7444 39.1336 56.9746 37.657C57.1483 36.5605 57.3109 35.4641 57.4808 34.3676C57.6636 33.2383 57.8463 32.1071 58.0291 30.9777C58.2118 29.8484 58.3544 28.7391 58.5133 27.6171C58.559 27.3119 58.422 27.1364 58.1131 27.1291C57.6599 27.1145 57.1994 27.0999 56.7499 27.1145C56.4538 27.1145 56.3844 27.0067 56.4246 26.7381C56.6293 25.5283 56.823 24.3185 57.0349 23.1124C57.0555 23.0658 57.087 23.0249 57.1268 22.993C57.1665 22.9612 57.2134 22.9395 57.2634 22.9297C59.0305 22.9297 60.7922 22.9297 62.5629 22.9425C62.8661 22.957 63.1651 23.0187 63.4493 23.1252C64.2606 23.4048 64.6937 24.0006 64.6627 24.8485C64.6316 25.6964 64.5384 26.4932 64.4361 27.3228C64.3374 28.0995 64.1894 28.8634 64.0706 29.6364C64.0121 30.0201 63.9463 30.4021 63.9098 30.784C63.9098 30.8754 63.9883 31.0581 64.0249 31.0581C64.553 31.0252 65.1031 31.0417 65.602 30.8918C66.1721 30.7237 66.3183 30.1243 66.4846 29.6218C66.9726 28.1726 67.3892 26.707 67.9064 25.2761C68.3614 24.0188 69.2733 23.1727 70.6293 23.0686C72.2447 22.9425 73.8711 22.9681 75.4939 22.9297C75.5341 22.9297 75.5761 22.9608 75.631 22.9845" fill="#101010"/>
<path fill-rule="evenodd" clip-rule="evenodd" d="M82.6121 38.9226C83.9351 38.9226 85.2436 38.95 86.5484 38.9098C87.2629 38.8842 87.6028 38.5132 87.7362 37.8005C87.7803 37.5223 87.8414 37.2471 87.9189 36.9763C87.941 36.9217 87.976 36.8733 88.0209 36.8351C88.0657 36.7969 88.1192 36.7701 88.1766 36.7571C89.6258 36.7406 91.0786 36.7479 92.5277 36.7406C92.7251 36.7406 92.822 36.8155 92.7799 37.0147C92.4948 38.389 92.4693 39.8235 91.8662 41.1265C91.6475 41.6287 91.2972 42.0626 90.8524 42.3823C90.4075 42.702 89.8846 42.8957 89.3389 42.9429C88.5278 43.0449 87.7112 43.0968 86.8938 43.0983C83.4655 43.1165 80.0409 43.1092 76.6144 43.0983C76.4646 43.0983 76.3184 43.0873 76.1375 43.0763C76.989 37.742 77.8315 32.4461 78.6776 27.1246H76.8045C76.4262 27.1246 76.4079 27.0826 76.4664 26.7226C76.6692 25.5768 76.8611 24.4237 77.0347 23.2687C77.0694 23.0184 77.148 22.9307 77.4002 22.9307C82.1826 22.9307 86.965 22.9307 91.7492 22.9544C92.1774 22.9741 92.5979 23.0752 92.9883 23.2523C93.1643 23.3243 93.3136 23.4494 93.4151 23.6103C93.5167 23.7711 93.5655 23.9596 93.5548 24.1496C93.4951 25.1754 93.4128 26.1987 93.3081 27.2197C93.2477 27.8209 93.1253 28.4203 93.0522 29.0215C93.0266 29.2043 92.9736 29.3157 92.7525 29.3157C91.2357 29.3066 89.7135 29.3157 88.1949 29.3066C88.1569 29.3013 88.1199 29.2902 88.0852 29.2737C88.1638 28.7675 88.2479 28.2613 88.3155 27.7514C88.3776 27.2781 88.2771 27.1429 87.802 27.1356C86.7512 27.1137 85.6968 27.121 84.6442 27.1356C84.5911 27.1481 84.5421 27.1737 84.5015 27.2101C84.461 27.2465 84.4302 27.2925 84.4121 27.3439C84.2293 28.4166 84.0832 29.493 83.9077 30.5639C83.8602 30.8453 83.9589 30.9093 84.2166 30.9056C85.6328 30.9056 87.0491 30.9056 88.4617 30.9056C88.7705 30.9056 88.8765 30.9659 88.8272 31.2967C88.6444 32.4187 88.4781 33.5389 88.3173 34.6573C88.2716 34.9844 88.1638 35.1325 87.7874 35.1233C86.3601 35.0959 84.9329 35.1233 83.5039 35.1105C83.3211 35.1105 83.1804 35.1105 83.1384 35.3627C82.9666 36.514 82.7729 37.6671 82.5901 38.8166C82.5949 38.8531 82.6028 38.8892 82.6139 38.9244" fill="#101010"/>
<path fill-rule="evenodd" clip-rule="evenodd" d="M122.589 20.6483C123.442 15.2866 124.281 9.99985 125.131 4.67287H123.354C122.839 4.67287 122.863 4.67287 122.954 4.15753C123.102 3.39183 123.21 2.61152 123.332 1.84399C123.395 1.45841 123.44 1.07647 123.515 0.700019C123.533 0.617784 123.647 0.537377 123.733 0.495346C123.818 0.453315 123.892 0.482554 123.976 0.482554C128.584 0.482554 133.192 0.4856 137.798 0.491691C138.241 0.504073 138.682 0.552971 139.116 0.637886C139.346 0.685897 139.556 0.805974 139.713 0.980747C139.871 1.15552 139.969 1.37593 139.993 1.61008C140.013 2.28824 139.99 2.96698 139.924 3.64219C139.823 4.5687 139.65 5.48791 139.533 6.41442C139.492 6.72691 139.423 6.87676 139.052 6.86762C137.647 6.84204 136.241 6.86762 134.849 6.85666C134.758 6.85666 134.666 6.84752 134.546 6.84204C134.606 6.44548 134.664 6.06903 134.719 5.69075C134.719 5.64506 134.741 5.59938 134.748 5.55369C134.873 4.78617 134.778 4.67287 133.99 4.67287C133.054 4.67287 132.117 4.67287 131.183 4.67287C131 4.67287 130.887 4.70942 130.852 4.92871C130.704 5.98131 130.542 7.03026 130.372 8.07921C130.321 8.37891 130.412 8.46846 130.712 8.46297C132.126 8.45018 133.542 8.46297 134.955 8.46297C135.225 8.46297 135.342 8.50683 135.289 8.81384C135.107 9.96696 134.924 11.1219 134.765 12.275C134.719 12.5674 134.602 12.6807 134.281 12.6752C132.857 12.6569 131.428 12.6752 130.003 12.6569C129.694 12.6569 129.615 12.7593 129.577 13.048C129.418 14.1792 129.228 15.3012 129.043 16.4525C129.097 16.47 129.152 16.4816 129.208 16.4873C130.377 16.4873 131.545 16.4873 132.716 16.4873C132.973 16.4858 133.228 16.447 133.473 16.3721C133.91 16.2332 134.08 15.8513 134.184 15.4456C134.257 15.1498 134.313 14.8503 134.354 14.5483C134.381 14.3656 134.461 14.3035 134.652 14.3035C136.09 14.3035 137.528 14.3035 138.964 14.3035C139.176 14.3035 139.284 14.3619 139.235 14.5885C138.983 15.8422 138.811 17.1195 138.449 18.3439C138.083 19.6231 137.106 20.3431 135.786 20.5076C134.998 20.606 134.205 20.6561 133.411 20.6575C129.964 20.6757 126.51 20.6575 123.066 20.6575L122.589 20.6483Z" fill="#101010"/>
<path fill-rule="evenodd" clip-rule="evenodd" d="M104.298 20.6488C105.153 15.2798 105.994 9.98575 106.838 4.67339C106.184 4.67339 105.559 4.65694 104.947 4.67339C104.638 4.68252 104.569 4.59115 104.623 4.28597C104.83 3.13834 105.029 1.99071 105.188 0.830286C105.234 0.497692 105.385 0.477591 105.645 0.477591H115.714C117.059 0.477591 118.402 0.464799 119.749 0.49221C120.189 0.498777 120.625 0.579078 121.039 0.729777C121.25 0.797676 121.431 0.934471 121.555 1.11813C121.678 1.30178 121.736 1.5216 121.719 1.74218C121.662 2.74179 121.577 3.74139 121.476 4.741C121.416 5.34406 121.293 5.94163 121.217 6.5392C121.191 6.72194 121.173 6.85352 120.937 6.85352C119.384 6.85352 117.83 6.85352 116.237 6.85352C116.306 6.42955 116.361 6.02752 116.434 5.63462C116.586 4.77755 116.502 4.66973 115.636 4.66973H112.894C112.712 4.66973 112.582 4.66973 112.547 4.90364C112.401 5.9398 112.231 6.97779 112.077 8.01029C112.014 8.44156 112.03 8.44705 112.443 8.44705H116.593C116.719 8.44705 116.843 8.45801 117.021 8.46715C116.933 9.08117 116.856 9.65864 116.769 10.2306C116.672 10.8757 116.557 11.519 116.474 12.1659C116.429 12.5113 116.304 12.6593 115.926 12.6575C114.512 12.6282 113.099 12.6575 111.683 12.6337C111.414 12.6337 111.317 12.7123 111.288 12.9773C111.124 14.0865 110.934 15.1903 110.756 16.2959C110.756 16.3397 110.756 16.3818 110.765 16.464C111.392 16.464 112.008 16.464 112.626 16.464C113.382 16.4512 114.143 16.4494 114.901 16.4055C115.497 16.369 115.752 15.9395 115.882 15.4187C115.959 15.1243 116.02 14.826 116.065 14.5251C116.089 14.3314 116.171 14.2766 116.361 14.2766C117.797 14.2766 119.234 14.2766 120.674 14.2766C120.857 14.2766 120.99 14.3131 120.948 14.5269C120.663 15.9158 120.632 17.3649 120.021 18.6752C119.802 19.1743 119.454 19.6056 119.011 19.9241C118.569 20.2426 118.05 20.4367 117.507 20.4862C116.683 20.5877 115.855 20.639 115.025 20.6397C111.599 20.658 108.176 20.6397 104.749 20.6397L104.298 20.6488Z" fill="#101010"/>
<path fill-rule="evenodd" clip-rule="evenodd" d="M45.5055 7.82759C44.7343 7.82759 43.9595 7.81662 43.1865 7.82759C42.8503 7.84221 42.7881 7.71612 42.8429 7.41824C42.9197 7.01255 42.9782 6.61052 43.0257 6.20482C43.0951 5.47385 42.8996 5.12846 42.196 4.96948C41.4663 4.77844 40.6923 4.85493 40.0141 5.18511C39.3818 5.5104 39.0766 6.11163 38.8829 6.72199C38.551 7.74163 38.2915 8.78342 38.1062 9.8396C37.876 11.3015 37.7407 12.7818 37.6165 14.2602C37.5996 14.7491 37.6469 15.2382 37.7572 15.7148C37.7907 15.9098 37.8876 16.0883 38.0331 16.2225C38.1785 16.3567 38.3642 16.439 38.5613 16.4567C39.1693 16.5208 39.7829 16.5116 40.3887 16.4293C41.0776 16.3197 41.3792 15.7313 41.5802 15.1319C41.7262 14.6652 41.8392 14.1889 41.9183 13.7065C41.9767 13.4122 42.101 13.2989 42.4044 13.3026C44.0552 13.3172 45.7047 13.3172 47.3531 13.3026C47.6857 13.3026 47.7441 13.4068 47.693 13.7101C47.4517 15.1154 47.1923 16.5134 46.4722 17.7707C45.8409 18.8488 44.88 19.6957 43.7311 20.1866C42.7788 20.6291 41.754 20.8948 40.7067 20.9705C39.7619 21.0381 38.8153 21.1204 37.8705 21.0948C36.3775 21.0509 34.932 20.7695 33.6674 19.8905C32.6822 19.2061 31.9703 18.1959 31.6572 17.0379C31.1474 15.2781 31.2917 13.4926 31.4745 11.7127C31.6344 10.0411 31.9551 8.38875 32.432 6.77864C32.9346 5.11202 33.587 3.5258 34.8845 2.29228C35.7978 1.40003 36.9337 0.768979 38.1738 0.464844C40.2154 -0.0278322 42.3338 -0.115374 44.4091 0.207175C45.3373 0.328914 46.2241 0.666242 46.9985 1.19216C47.5067 1.5303 47.919 1.99398 48.1953 2.53827C48.4716 3.08256 48.6026 3.689 48.5756 4.29881C48.5537 5.37882 48.3819 6.45701 48.2741 7.53703C48.254 7.7819 48.0914 7.82576 47.883 7.82576C47.0844 7.82576 46.2932 7.82576 45.5074 7.82576" fill="#101010"/>
<path fill-rule="evenodd" clip-rule="evenodd" d="M102.992 6.84188H98.0906C98.1656 6.27903 98.2332 5.73628 98.3099 5.19719C98.3593 4.85363 98.2003 4.69099 97.864 4.69099C97.0088 4.69099 96.1572 4.69099 95.3056 4.67819C95.0279 4.67819 95.0242 4.88835 94.995 5.0583C94.8835 5.65953 94.7903 6.2571 94.6934 6.85284C94.5838 7.5491 94.4796 8.23987 94.3755 8.93247C94.372 9.01531 94.3794 9.09824 94.3974 9.17917H99.781C99.6184 10.261 99.463 11.2807 99.3095 12.3059C99.267 12.4998 99.2383 12.6964 99.2236 12.8944C99.2236 13.2598 99.0555 13.3421 98.7211 13.3366C97.2007 13.322 95.6802 13.3366 94.1525 13.322C93.8035 13.322 93.6481 13.4115 93.6043 13.7569C93.4416 14.9027 93.268 16.0412 93.0962 17.1815C92.9336 18.2615 92.7764 19.3324 92.5992 20.4088C92.5787 20.4665 92.5441 20.5182 92.4984 20.5591C92.4527 20.6 92.3975 20.6287 92.3379 20.6427C90.5104 20.6537 88.683 20.6427 86.8683 20.6427C86.8146 20.6326 86.762 20.6173 86.7112 20.597C87.5555 15.2974 88.3979 9.99786 89.2477 4.67089H87.402C87.0072 4.67089 86.9871 4.6252 87.0529 4.2524C87.2521 3.11756 87.4458 1.97724 87.6011 0.833267C87.6432 0.570116 87.7199 0.476917 87.9867 0.480572C92.537 0.480572 97.0819 0.480572 101.634 0.497019C103.078 0.497019 103.549 1.29561 103.542 1.7415C103.542 2.40304 103.52 3.07188 103.445 3.73158C103.332 4.71657 103.167 5.69425 103.023 6.67741C103.023 6.72492 103.001 6.76513 102.983 6.84005" fill="#101010"/>
<path fill-rule="evenodd" clip-rule="evenodd" d="M29.7766 43.0836C29.815 42.857 29.857 42.6688 29.8844 42.4787C30.1074 41.0369 30.3212 39.5914 30.5478 38.1495C30.831 36.3403 31.1271 34.5312 31.4085 32.7275C31.6698 31.0389 31.9184 29.354 32.1651 27.671C32.2162 27.3274 32.1139 27.1739 31.7667 27.1556C31.3117 27.1261 30.8554 27.1194 30.3998 27.1355C30.1366 27.1355 30.0343 27.057 30.08 26.7865C30.2828 25.5694 30.4765 24.345 30.6903 23.1316C30.7103 23.0843 30.7419 23.0428 30.7822 23.0109C30.8224 22.979 30.87 22.9577 30.9206 22.9489C32.7224 22.9489 34.5243 22.9343 36.3225 22.9745C36.9968 22.9927 37.6437 23.1974 38.0476 23.8224C38.1755 24.0216 38.4679 24.7891 38.1042 27.4133C37.9562 28.6176 37.7387 29.8164 37.556 31.0134C37.3257 32.4753 37.0845 33.919 36.8524 35.37C36.6861 36.4189 36.529 37.4679 36.3517 38.515C36.2969 38.8458 36.3956 38.9499 36.7337 38.9353C37.5268 38.8969 38.3217 38.9079 39.1093 38.875C39.6923 38.8458 40.023 38.4583 40.1363 37.9284C40.3191 37.0805 40.4799 36.2344 40.6151 35.3864C40.7504 34.5385 40.7303 34.522 41.5782 34.522C42.8574 34.522 44.1476 34.522 45.4341 34.522C45.7447 34.522 45.8526 34.5897 45.7996 34.9186C45.5255 36.492 45.2915 38.0746 45.0174 39.648C44.8621 40.5325 44.588 41.3713 43.9319 42.0237C43.4267 42.5364 42.7612 42.8608 42.046 42.9429C41.3285 43.0439 40.6051 43.0976 39.8805 43.1037C36.6532 43.1165 33.426 43.1147 30.1951 43.1147C30.0672 43.1147 29.9392 43.1 29.7693 43.0891" fill="#101010"/>
<path fill-rule="evenodd" clip-rule="evenodd" d="M46.3411 43.1098L46.681 40.9352C46.8162 40.1067 46.952 39.2771 47.0885 38.4462C47.2712 37.2949 47.454 36.1418 47.6367 34.9924C47.8073 33.9227 47.9772 32.85 48.1466 31.7742C48.3293 30.5791 48.5267 29.3785 48.7113 28.1833C48.7404 28.0092 48.7588 27.8334 48.7661 27.657C48.7862 27.2276 48.6784 27.1216 48.2471 27.1252C47.8158 27.1289 47.3827 27.1252 46.9514 27.1362C46.7212 27.1362 46.6353 27.0741 46.6755 26.8274C46.8747 25.6669 47.072 24.5047 47.2456 23.3388C47.2932 23.0263 47.4156 22.9349 47.7208 22.9386C49.2887 22.9514 50.853 22.924 52.4191 22.9587C52.9157 22.9767 53.4075 23.0622 53.8811 23.2127C54.6833 23.4484 54.9903 24.0972 54.9958 24.8574C54.9868 25.5705 54.9257 26.2821 54.8131 26.9864C54.6413 28.2217 54.4476 29.4552 54.2411 30.6869C54.0163 32.1014 53.7751 33.5194 53.554 34.9357C53.3712 36.0504 53.2122 37.1743 53.0368 38.2891C52.854 39.4805 52.6585 40.6647 52.4703 41.8544C52.4032 42.1614 52.3537 42.4719 52.3223 42.7846C52.3058 43.0843 52.1578 43.1135 51.9129 43.1135C50.546 43.1135 49.1809 43.1135 47.8121 43.1135L46.3411 43.1098Z" fill="#101010"/>
<path fill-rule="evenodd" clip-rule="evenodd" d="M128.744 33.0752L135.067 25.6412H96.0676L94.167 40.4142H134.005L128.744 33.0752ZM96.4148 22.9512L96.2229 24.4296H136.099L137.359 22.9512H96.4148ZM94.0135 41.6276L93.8198 43.1151H135.935L134.868 41.6239L94.0135 41.6276Z" fill="#00A75D"/>
<path d="M27.5365 2.81292C27.5069 2.7318 27.454 2.66125 27.3844 2.61019C27.3148 2.55912 27.2317 2.52983 27.1454 2.52601H26.8658C26.7798 2.52122 26.6971 2.49132 26.6279 2.44C26.5587 2.38868 26.5061 2.31819 26.4766 2.23727L26.038 0.901417C26.0085 0.820576 25.9555 0.750405 25.8858 0.699928C25.8161 0.649451 25.7329 0.620975 25.6469 0.618164H2.66323C2.57716 0.621579 2.494 0.650262 2.42413 0.700634C2.35426 0.751007 2.30077 0.820838 2.27033 0.901417L1.83906 2.23727C1.80757 2.31798 1.7537 2.38803 1.68378 2.43918C1.61386 2.49033 1.53078 2.52045 1.44433 2.52601H1.15742C1.07173 2.52944 0.989077 2.55866 0.920276 2.60986C0.851475 2.66105 0.799736 2.73183 0.771832 2.81292L0.0152733 5.29823C0.00192823 5.33146 -0.00278307 5.36752 0.00157895 5.40306C0.00594097 5.4386 0.0192342 5.47246 0.0402183 5.50147C0.0612024 5.53048 0.0891937 5.55371 0.121581 5.56898C0.153967 5.58425 0.189695 5.59107 0.225429 5.58879H28.0774C28.1133 5.59122 28.1492 5.58456 28.1818 5.56942C28.2145 5.55429 28.2427 5.53116 28.2641 5.50219C28.2854 5.47323 28.299 5.43935 28.3038 5.4037C28.3085 5.36804 28.3042 5.33177 28.2912 5.29823L27.5365 2.81292Z" fill="#101010"/>
<path d="M7.02917 24.545C6.99044 24.5442 6.952 24.5519 6.91661 24.5677C6.88122 24.5834 6.84975 24.6068 6.82444 24.6361C6.79913 24.6655 6.7806 24.7 6.77019 24.7373C6.75977 24.7746 6.75772 24.8138 6.76419 24.852L7.41293 30.422C7.4246 30.5035 7.46481 30.5781 7.52639 30.6327C7.58797 30.6872 7.66693 30.7181 7.74918 30.7199H20.5705C20.6525 30.7181 20.7312 30.6871 20.7925 30.6325C20.8538 30.5779 20.8936 30.5033 20.9049 30.422L21.5536 24.852C21.5592 24.8144 21.5566 24.7761 21.5458 24.7397C21.5351 24.7033 21.5166 24.6697 21.4915 24.6411C21.4665 24.6126 21.4355 24.5899 21.4008 24.5746C21.3661 24.5592 21.3284 24.5516 21.2905 24.5523L7.02917 24.545Z" fill="#00A75D"/>
<path d="M6.16622 17.1758C6.1282 17.1752 6.0905 17.1828 6.05571 17.1981C6.02092 17.2135 5.98987 17.2361 5.96469 17.2646C5.93951 17.2931 5.92079 17.3267 5.90984 17.3631C5.89889 17.3995 5.89595 17.4379 5.90124 17.4755L6.55546 23.0547C6.56568 23.1358 6.60507 23.2104 6.66628 23.2645C6.72749 23.3187 6.80633 23.3487 6.88805 23.3489H21.4271C21.5091 23.348 21.588 23.3179 21.6496 23.2639C21.7113 23.21 21.7516 23.1358 21.7634 23.0547L22.414 17.4755C22.4192 17.4379 22.4163 17.3995 22.4054 17.3631C22.3944 17.3267 22.3757 17.2931 22.3505 17.2646C22.3253 17.2361 22.2943 17.2135 22.2595 17.1981C22.2247 17.1828 22.187 17.1752 22.149 17.1758H6.16622Z" fill="#00A75D"/>
<path d="M7.8857 31.9014C7.84769 31.9008 7.80999 31.9084 7.7752 31.9237C7.74041 31.939 7.70935 31.9617 7.68417 31.9902C7.65899 32.0187 7.64028 32.0523 7.62932 32.0887C7.61837 32.1251 7.61543 32.1635 7.62072 32.2011L8.29504 37.9776C8.30701 38.0591 8.34726 38.1338 8.40873 38.1886C8.4702 38.2434 8.54899 38.2748 8.63129 38.2773H19.6855C19.7676 38.2747 19.8461 38.2432 19.9073 38.1884C19.9684 38.1336 20.0083 38.059 20.0199 37.9776L20.696 32.2011C20.701 32.1634 20.6978 32.125 20.6867 32.0886C20.6755 32.0522 20.6566 32.0186 20.6313 31.9902C20.6059 31.9617 20.5748 31.9391 20.5399 31.9238C20.5051 31.9084 20.4673 31.9008 20.4292 31.9014H7.8857Z" fill="#00A75D"/>
<path d="M26.5405 7.06877C26.5456 7.03119 26.5424 6.99296 26.5312 6.95674C26.52 6.92051 26.501 6.88715 26.4756 6.85899C26.4503 6.83082 26.4191 6.80851 26.3842 6.79362C26.3493 6.77872 26.3116 6.77159 26.2737 6.77273H2.04372C2.00558 6.771 1.96752 6.7777 1.93227 6.79237C1.89702 6.80704 1.86544 6.8293 1.83978 6.85758C1.81413 6.88585 1.79503 6.91944 1.78384 6.95595C1.77266 6.99245 1.76967 7.03098 1.77509 7.06877L5.64743 42.9962C5.65829 43.0773 5.69776 43.1519 5.75874 43.2065C5.81971 43.2611 5.89819 43.2922 5.98002 43.2941H22.3356C22.417 43.2919 22.4951 43.261 22.556 43.2068C22.6168 43.1526 22.6566 43.0787 22.6682 42.998L26.5405 7.06877ZM24.1996 8.63489C24.2371 8.63417 24.2744 8.64143 24.3089 8.6562C24.3434 8.67096 24.3744 8.6929 24.3998 8.72054C24.4252 8.74819 24.4444 8.78092 24.4562 8.81656C24.468 8.8522 24.4721 8.88994 24.4682 8.92728L21.2099 39.1659C21.1987 39.2474 21.1589 39.3222 21.0976 39.3771C21.0364 39.432 20.9577 39.4633 20.8755 39.4656H7.43831C7.35664 39.4628 7.27858 39.4312 7.21802 39.3763C7.15745 39.3215 7.11831 39.2469 7.10755 39.1659L3.84923 8.92728C3.84503 8.88988 3.84891 8.85201 3.86059 8.81624C3.87227 8.78047 3.8915 8.74762 3.91696 8.7199C3.94242 8.69219 3.97353 8.67026 4.00818 8.6556C4.04284 8.64093 4.08024 8.63387 4.11786 8.63489H24.1996Z" fill="#101010"/>
</svg>
